<svg width="873" height="702" viewBox="0 0 873 702" fill="none" xmlns="http://www.w3.org/2000/svg">
<path fill-rule="evenodd" clip-rule="evenodd" d="M59.2413 0C26.6971 0 0 21.8032 0 48.3795V168.419C0 194.991 26.6178 217 59.2413 217H203.506C236.13 217 263 195.06 263 168.419V48.3795C263 21.7378 236.05 0 203.506 0H59.2413Z" fill="#F2A424"/>
<path fill-rule="evenodd" clip-rule="evenodd" d="M59.2413 241C26.6971 241 0 263.004 0 289.825V410.971C0 437.789 26.6178 460 59.2413 460H203.506C236.13 460 263 437.858 263 410.971V289.825C263 262.938 236.05 241 203.506 241H59.2413Z" fill="#F2A424"/>
<path fill-rule="evenodd" clip-rule="evenodd" d="M364.494 0C331.95 0 305 21.7351 305 48.3795V168.419C305 195.06 331.869 217 364.494 217H508.759C541.382 217 568 194.992 568 168.419V48.3795C568 21.8069 541.298 0 508.759 0H364.494Z" fill="#F2A424"/>
<path fill-rule="evenodd" clip-rule="evenodd" d="M364.494 241C331.95 241 305 262.935 305 289.825V410.971C305 437.858 331.869 460 364.494 460H508.759C541.382 460 568 437.789 568 410.971V289.825C568 263.008 541.298 241 508.759 241H364.494Z" fill="#F2A424"/>
<path fill-rule="evenodd" clip-rule="evenodd" d="M669.494 0C636.95 0 610 21.7351 610 48.3795V168.419C610 195.06 636.869 217 669.494 217H813.759C846.382 217 873 194.992 873 168.419V48.3795C873 21.8069 846.298 0 813.759 0H669.494Z" fill="#F2A424"/>
<path fill-rule="evenodd" clip-rule="evenodd" d="M669.494 241C636.95 241 610 262.935 610 289.825V410.971C610 437.858 636.869 460 669.494 460H813.759C846.382 460 873 437.789 873 410.971V289.825C873 263.008 846.298 241 813.759 241H669.494Z" fill="#F2A424"/>
<path fill-rule="evenodd" clip-rule="evenodd" d="M59.2413 484C26.6971 484 0 505.904 0 532.602V653.195C0 679.89 26.6178 702 59.2413 702H203.506C236.13 702 263 679.959 263 653.195V532.602C263 505.838 236.05 484 203.506 484H59.2413Z" fill="#F2A424"/>
<path fill-rule="evenodd" clip-rule="evenodd" d="M364.494 484C331.95 484 305 505.835 305 532.602V653.195C305 679.959 331.869 702 364.494 702H508.759C541.382 702 568 679.891 568 653.195V532.602C568 505.907 541.298 484 508.759 484H364.494Z" fill="#F2A424"/>
<path fill-rule="evenodd" clip-rule="evenodd" d="M669.494 484C636.95 484 610 505.835 610 532.602V653.195C610 679.959 636.869 702 669.494 702H813.759C846.382 702 873 679.891 873 653.195V532.602C873 505.907 846.298 484 813.759 484H669.494Z" fill="#F2A424"/>
</svg>
